# xmcd
#
# Track frame offsets:
#	150
#	25897
#	36127
#	50439
#	82697
#	93164
#	96568
#	110158
#	122555
#	138701
#	154286
#	166357
#	179218
#	185701
#	192542
#	198148
#	220243
#	227919
#
# Disc length: 3062 seconds
#
# Revision: 0
# Processed by: cddbd v1.4PL0 Copyright (c) Steve Scherf et al.
# Submitted via: audiograbber 1.81.02
#
DISCID=080bf412
DTITLE=Willie Nelson - 1993-09-03 - Ras G vaults #3 - Disc 2
DYEAR=1900
DGENRE=
TTITLE0=Shotgun Willie
TTITLE1=On the Road Again
TTITLE2=You Were Allways On My Mind
TTITLE3=Will The Circle Be Unbroken
TTITLE4=Unclouded Day
TTITLE5=Tune Up jam
TTITLE6=Midnight Rodeo
TTITLE7=Live the Life I Love
TTITLE8=Still Movin
TTITLE9=Be My Valentine
TTITLE10=Seven Spanish Angels
TTITLE11=City of New Orleans
TTITLE12=All The Girls Ive Loved Before
TTITLE13=Willie,Waylon and the Boys
TTITLE14=Whisky River reprise
TTITLE15=Milk Cow Blues
TTITLE16=I Saw the Light
TTITLE17=filler
EXTD=
EXTT0=
EXTT1=
EXTT2=
EXTT3=
EXTT4=
EXTT5=
EXTT6=
EXTT7=
EXTT8=
EXTT9=
EXTT10=
EXTT11=
EXTT12=
EXTT13=
EXTT14=
EXTT15=
EXTT16=
EXTT17=
PLAYORDER=
